<?xml version="1.0" encoding="UTF-8"?>
<svg xmlns="http://www.w3.org/2000/svg" viewBox="0 0 116.47 23.96">
  <defs>
    <style>
      .cls-1 {
        fill: #fff;
      }

      .cls-1, .cls-2 {
        stroke-width: 0px;
      }

      .cls-3 {
        stroke: #1d1d1b;
        stroke-miterlimit: 10;
        stroke-width: .21px;
      }

      .cls-3, .cls-2 {
        fill: #1d1d1b;
      }
    </style>
  </defs>
  <g id="Camada_4" data-name="Camada 4">
    <rect class="cls-2" x="-44.49" y="-14.97" width="247.93" height="71.12"/>
  </g>
  <g id="Camada_1" data-name="Camada 1">
    <g>
      <g>
        <path class="cls-1" d="m.12,23.7V0h6.35v8.87h8.28V0h6.35v23.7h-6.35v-9.26H6.47v9.26H.12Z"/>
        <path class="cls-1" d="m25.18,9.39c0-3.6.67-6.11,2.02-7.54,1.35-1.43,3.7-2.14,7.05-2.14h3.11c3.36,0,5.72.72,7.07,2.15,1.35,1.43,2.03,3.94,2.03,7.53v4.92c0,3.59-.68,6.1-2.03,7.53-1.35,1.43-3.71,2.15-7.07,2.15h-3.11c-3.35,0-5.7-.71-7.05-2.14-1.35-1.43-2.02-3.94-2.02-7.54v-4.92Zm6.49.53v3.9c0,2.03.23,3.3.68,3.82.46.52,1.41.78,2.86.78h1.18c1.45,0,2.41-.27,2.88-.8.47-.53.7-1.8.7-3.8v-3.9c0-2.02-.23-3.29-.7-3.83-.47-.54-1.42-.8-2.88-.8h-1.18c-1.44,0-2.39.27-2.85.8s-.69,1.81-.69,3.84Z"/>
        <path class="cls-1" d="m50.18,0h6.32v13.82c0,1.92.24,3.17.72,3.74.48.57,1.47.86,2.97.86h1.16c1.49,0,2.47-.28,2.94-.84.48-.56.72-1.81.72-3.76V0h6.32v14.31c0,2.12-.13,3.68-.39,4.68-.26,1-.7,1.86-1.33,2.59-.74.86-1.67,1.48-2.78,1.85-1.11.37-2.61.56-4.5.56h-3.14c-1.89,0-3.39-.19-4.5-.56-1.11-.37-2.03-.99-2.76-1.85-.64-.74-1.09-1.62-1.36-2.63-.27-1.01-.41-2.56-.41-4.64V0Z"/>
        <path class="cls-1" d="m74.76,16.36h6.1v.24c0,.86.23,1.46.68,1.8.46.34,1.26.51,2.42.51h1.59c.97,0,1.64-.13,2.03-.39.39-.26.58-.72.58-1.38v-1.03c0-.56-.15-.97-.46-1.21-.31-.24-1-.43-2.09-.56l-5.16-.56c-1.92-.21-3.32-.81-4.21-1.81-.89-.99-1.33-2.46-1.33-4.42v-1.46c0-1.1.18-2.09.53-2.95s.86-1.57,1.53-2.13c.57-.48,1.27-.81,2.09-1.01.82-.2,2.04-.29,3.66-.29h3.8c2.37,0,4.18.48,5.43,1.43,1.25.96,1.88,2.33,1.88,4.14v1.62h-6.1v-.25c0-.71-.17-1.2-.5-1.48-.33-.28-.94-.41-1.81-.41h-1.46c-1.01,0-1.7.12-2.08.36s-.56.65-.56,1.23v.99c0,.87.85,1.4,2.56,1.59l4.7.53c2.03.23,3.54.83,4.54,1.77s1.5,2.28,1.5,4v2.28c0,1.96-.61,3.53-1.83,4.71-1.22,1.18-2.86,1.77-4.92,1.77h-5.17c-2.77,0-4.78-.48-6.04-1.43-1.26-.96-1.89-2.47-1.89-4.55v-1.64Z"/>
        <path class="cls-1" d="m98.4,23.7V0h17.81v5.28h-11.46v4.11h11.13v4.57h-11.13v4.46h11.72v5.28h-18.07Z"/>
      </g>
      <polygon class="cls-3" points="3.33 2.25 3.68 3.32 4.81 3.32 3.9 3.99 4.25 5.07 3.33 4.4 2.41 5.07 2.76 3.99 1.85 3.32 2.98 3.32 3.33 2.25"/>
    </g>
  </g>
</svg>